<svg xmlns="http://www.w3.org/2000/svg" viewBox="0 0 64 64" width="512" height="512">  <defs>    <linearGradient id="gBlue" x1="0" y1="0" x2="1" y2="1">      <stop offset="0" stop-color="#3fa9e0"/><stop offset="1" stop-color="#0067A5"/>    </linearGradient>    <linearGradient id="gPurple" x1="0" y1="0" x2="0" y2="1">      <stop offset="0" stop-color="#5470c4"/><stop offset="1" stop-color="#6b47ad"/>    </linearGradient>    <linearGradient id="gLattice" gradientUnits="userSpaceOnUse" x1="0" y1="6" x2="0" y2="56">      <stop offset="0" stop-color="#4fb3ea"/><stop offset="1" stop-color="#0f4f9a"/>    </linearGradient>    <radialGradient id="gCore" cx=".4" cy=".35" r=".7">      <stop offset="0" stop-color="#d4f3ff"/><stop offset="1" stop-color="#5cc8ff"/>    </radialGradient>    <radialGradient id="gFlare" cx=".5" cy=".5" r=".5">      <stop offset="0" stop-color="#ffffff"/><stop offset=".35" stop-color="#cfe3ff" stop-opacity=".7"/><stop offset="1" stop-color="#cfe3ff" stop-opacity="0"/>    </radialGradient>  </defs>
    <g fill="none" stroke="url(#gLattice)" stroke-linecap="round" stroke-linejoin="round">
      <polygon points="32,6 56,54 32,40 8,54" stroke-width="4.5"/>
      <path d="M32 6 C26 16 28 24 32 30 C36 24 38 16 32 6" stroke-width="2.6"/>
      <g stroke-width="2.4">
        <line x1="32" y1="30" x2="26" y2="18"/><line x1="32" y1="30" x2="38" y2="18"/>
        <line x1="32" y1="30" x2="14" y2="42"/><line x1="32" y1="30" x2="50" y2="42"/>
        <line x1="21.2" y1="27.6" x2="32" y2="40"/><line x1="42.8" y1="27.6" x2="32" y2="40"/>
      </g>
    </g>
    <g stroke="#e0a84a" stroke-width="2.8" stroke-linecap="round">
      <line x1="32" y1="30" x2="21.2" y2="27.6"/><line x1="32" y1="30" x2="42.8" y2="27.6"/>
      <line x1="32" y1="30" x2="32" y2="40"/>
    </g>
    <circle cx="32" cy="30" r="6.5" fill="#f2c67a" opacity=".35"/>
    <circle cx="32" cy="30" r="3.8" fill="#e8b25a"/>
</svg>
