<svg xmlns="http://www.w3.org/2000/svg" viewBox="0 0 64 64" width="512" height="512"><defs><linearGradient id="gTile" x1="0" y1="0" x2="1" y2="1"><stop offset="0" stop-color="#0a7cc2"/><stop offset="1" stop-color="#00456d"/></linearGradient></defs>
<rect x="24.5" y="0.5" width="7" height="7" rx="1.2" fill="#0067A5"/><rect x="32.5" y="0.5" width="7" height="7" rx="1.2" fill="#0067A5"/><rect x="16.5" y="8.5" width="7" height="7" rx="1.2" fill="#0067A5"/><rect x="24.5" y="8.5" width="7" height="7" rx="1.2" fill="#0067A5"/><rect x="32.5" y="8.5" width="7" height="7" rx="1.2" fill="#0067A5"/><rect x="40.5" y="8.5" width="7" height="7" rx="1.2" fill="#0067A5"/><rect x="8.5" y="16.5" width="7" height="7" rx="1.2" fill="#0067A5"/><rect x="16.5" y="16.5" width="7" height="7" rx="1.2" fill="#0067A5"/><rect x="40.5" y="16.5" width="7" height="7" rx="1.2" fill="#0067A5"/><rect x="48.5" y="16.5" width="7" height="7" rx="1.2" fill="#0067A5"/><rect x="8.5" y="24.5" width="7" height="7" rx="1.2" fill="#0067A5"/><rect x="16.5" y="24.5" width="7" height="7" rx="1.2" fill="#0067A5"/><rect x="40.5" y="24.5" width="7" height="7" rx="1.2" fill="#0067A5"/><rect x="48.5" y="24.5" width="7" height="7" rx="1.2" fill="#0067A5"/><rect x="0.5" y="40.5" width="7" height="7" rx="1.2" fill="#0067A5"/><rect x="8.5" y="40.5" width="7" height="7" rx="1.2" fill="#0067A5"/><rect x="48.5" y="40.5" width="7" height="7" rx="1.2" fill="#0067A5"/><rect x="56.5" y="40.5" width="7" height="7" rx="1.2" fill="#0067A5"/><rect x="0.5" y="48.5" width="7" height="7" rx="1.2" fill="#0067A5"/><rect x="8.5" y="48.5" width="7" height="7" rx="1.2" fill="#0067A5"/><rect x="48.5" y="48.5" width="7" height="7" rx="1.2" fill="#0067A5"/><rect x="56.5" y="48.5" width="7" height="7" rx="1.2" fill="#0067A5"/><rect x="0.5" y="56.5" width="7" height="7" rx="1.2" fill="#0067A5"/><rect x="8.5" y="56.5" width="7" height="7" rx="1.2" fill="#0067A5"/><rect x="48.5" y="56.5" width="7" height="7" rx="1.2" fill="#0067A5"/><rect x="56.5" y="56.5" width="7" height="7" rx="1.2" fill="#0067A5"/><rect x="8.5" y="32.5" width="47" height="7" rx="1.2" fill="#5cc8ff"/>
     <rect x="17.5" y="34.5" width="5" height="3" rx=".8" fill="#0b2a4a"/>
     <rect x="41.5" y="34.5" width="5" height="3" rx=".8" fill="#0b2a4a"/>
</svg>
